<?xml version="1.0" standalone="no"?><!DOCTYPE svg PUBLIC "-//W3C//DTD SVG 1.1//EN" "http://www.w3.org/Graphics/SVG/1.1/DTD/svg11.dtd"><svg t="1766641970339" class="icon" viewBox="0 0 1024 1024" version="1.1" xmlns="http://www.w3.org/2000/svg" p-id="1622" xmlns:xlink="http://www.w3.org/1999/xlink" width="200" height="200"><path d="M157.538462 78.769231a79.714462 79.714462 0 0 0-78.769231 78.769231v708.923076a79.793231 79.793231 0 0 0 78.769231 78.769231h708.923076a79.793231 79.793231 0 0 0 78.769231-78.769231V157.538462a79.714462 79.714462 0 0 0-78.769231-78.769231H157.538462z m0-78.769231h708.923076c44.347077 0.787692 81.447385 16.226462 111.379693 46.158769 29.932308 29.932308 45.292308 67.111385 46.158769 111.379693v708.923076c-0.787692 44.347077-16.226462 81.447385-46.158769 111.379693-29.932308 29.932308-67.111385 45.292308-111.379693 46.158769H157.538462c-44.347077-0.787692-81.447385-16.226462-111.379693-46.158769C16.226462 947.908923 0.866462 910.729846 0 866.461538V157.538462C0.787692 113.191385 16.226462 76.091077 46.158769 46.158769 76.091077 16.226462 113.270154 0.866462 157.538462 0z m196.923076 393.846154c22.134154-0.787692 40.644923-8.664615 55.37477-23.394462A75.382154 75.382154 0 0 0 432.049231 315.076923a74.909538 74.909538 0 0 0-22.212923-55.374769 75.224615 75.224615 0 0 0-55.37477-22.134154 75.224615 75.224615 0 0 0-55.374769 22.134154 74.909538 74.909538 0 0 0-22.212923 55.374769c0 22.134154 7.483077 40.566154 22.212923 55.374769 14.729846 14.808615 33.240615 22.606769 55.374769 23.394462z m0 78.769231c-44.347077-0.787692-81.447385-16.226462-111.379692-46.15877-29.932308-29.932308-45.292308-67.111385-46.158769-111.379692 0.787692-44.347077 16.226462-81.447385 46.158769-111.379692 29.932308-29.932308 67.111385-45.292308 111.379692-46.158769 44.347077 0.787692 81.447385 16.226462 111.379693 46.158769 29.932308 29.932308 45.292308 67.111385 46.158769 111.379692-0.787692 44.347077-16.226462 81.447385-46.158769 111.379692-29.932308 29.932308-67.111385 45.292308-111.379693 46.15877zM472.615385 275.692308h315.076923c26.230154 0 39.384615 13.154462 39.384615 39.384615 0 26.230154-13.154462 39.384615-39.384615 39.384615H472.615385c-26.230154 0-39.384615-13.154462-39.384616-39.384615 0-26.230154 13.154462-39.384615 39.384616-39.384615zM669.538462 787.692308c22.134154-0.787692 40.644923-8.664615 55.374769-23.394462A75.382154 75.382154 0 0 0 747.126154 708.923077a74.909538 74.909538 0 0 0-22.212923-55.374769 75.224615 75.224615 0 0 0-55.374769-22.212923 75.224615 75.224615 0 0 0-55.37477 22.212923 74.909538 74.909538 0 0 0-22.212923 55.374769c0 22.134154 7.483077 40.566154 22.212923 55.374769 14.729846 14.808615 33.240615 22.606769 55.37477 23.394462z m0 78.76923c-44.347077-0.787692-81.447385-16.226462-111.379693-46.158769-29.932308-29.932308-45.292308-67.111385-46.158769-111.379692 0.787692-44.347077 16.226462-81.447385 46.158769-111.379692 29.932308-29.932308 67.111385-45.292308 111.379693-46.15877 44.347077 0.787692 81.447385 16.226462 111.379692 46.15877 29.932308 29.932308 45.292308 67.111385 46.158769 111.379692-0.787692 44.347077-16.226462 81.447385-46.158769 111.379692-29.932308 29.932308-67.111385 45.292308-111.379692 46.158769zM236.307692 669.538462h315.076923c26.230154 0 39.384615 13.154462 39.384616 39.384615 0 26.230154-13.154462 39.384615-39.384616 39.384615H236.307692c-26.230154 0-39.384615-13.154462-39.384615-39.384615 0-26.230154 13.154462-39.384615 39.384615-39.384615z" p-id="1623"></path></svg>